<svg width="800px" height="800px" viewBox="0 0 1024 1024" class="icon"  version="1.1" xmlns="http://www.w3.org/2000/svg"><path d="M792.367447 420.849633c0.053242-2.220807 0.328667-4.416017 0.328667-6.661398 0-120.159086-97.403235-217.563345-217.563345-217.563345-86.685203 0-161.308014 50.825668-196.289055 124.188075-15.159646-7.621802-32.019966-12.310173-50.140689-12.310173-55.541683 0-101.353384 40.410706-110.37279 93.37527-66.316029 22.643224-114.07004 85.340842-114.07004 159.306317 0 92.962644 75.361032 168.326747 168.298078 168.407635h520.137841v-0.027645c84.931288-0.438223 153.605324-69.359016 153.605324-154.343546 0-85.150399-68.867551-154.124434-153.933991-154.37119z" fill="#98C4D8" /><path d="M764.295583 392.776745c0.053242-2.220807 0.328667-4.416017 0.328667-6.661398 0-120.159086-97.403235-217.563345-217.563345-217.563345-86.685203 0-161.308014 50.825668-196.289055 124.188075-15.159646-7.621802-32.019966-12.310173-50.140689-12.310173-55.541683 0-101.353384 40.410706-110.37279 93.37527-66.316029 22.643224-114.07004 85.340842-114.07004 159.306318 0 92.962644 75.361032 168.326747 168.298079 168.407634h520.138864v-0.027645c84.931288-0.438223 153.605324-69.359016 153.605324-154.343546-0.002048-85.149375-68.869599-154.124434-153.935015-154.37119z" fill="#000"  /><path d="M370.209746 360.015352a25.256179 53.668997 55.515 1 0 88.475966-60.773749 25.256179 53.668997 55.515 1 0-88.475966 60.773749Z" fill="#FEFEFE" /><path d="M315.976612 448.336543a16.837794 29.465372 55.515 1 0 48.575107-33.366025 16.837794 29.465372 55.515 1 0-48.575107 33.366025Z" fill="#FEFEFE" /></svg>